<svg width="556" height="610" viewBox="0 0 556 610" fill="none" xmlns="http://www.w3.org/2000/svg">
<path d="M449 426C449 455.321 431.88 483.456 400.973 504.891C370.123 526.287 326.692 540 278 540C229.308 540 185.877 526.287 155.027 504.891C124.12 483.456 107 455.321 107 426C107 396.679 124.12 368.544 155.027 347.109C185.877 325.713 229.308 312 278 312C326.692 312 370.123 325.713 400.973 347.109C431.88 368.544 449 396.679 449 426Z" fill="#C6C6C6" stroke="#6EA1DB" stroke-width="30"/>
<g filter="url(#filter0_d_3_2)">
<circle cx="278" cy="227" r="100" fill="#C6C6C6"/>
<circle cx="278" cy="227" r="85" stroke="#6EA1DB" stroke-width="30"/>
</g>
<path d="M513 305C513 434.668 404.835 540 278 540C148.213 540 43 434.787 43 305C43 175.213 148.213 70 278 70C407.787 70 513 175.213 513 305Z" stroke="#6EA1DB" stroke-width="30"/>
<defs>
<filter id="filter0_d_3_2" x="174" y="127" width="208" height="208" filterUnits="userSpaceOnUse" color-interpolation-filters="sRGB">
<feFlood flood-opacity="0" result="BackgroundImageFix"/>
<feColorMatrix in="SourceAlpha" type="matrix" values="0 0 0 0 0 0 0 0 0 0 0 0 0 0 0 0 0 0 127 0" result="hardAlpha"/>
<feOffset dy="4"/>
<feGaussianBlur stdDeviation="2"/>
<feComposite in2="hardAlpha" operator="out"/>
<feColorMatrix type="matrix" values="0 0 0 0 0 0 0 0 0 0 0 0 0 0 0 0 0 0 0.25 0"/>
<feBlend mode="normal" in2="BackgroundImageFix" result="effect1_dropShadow_3_2"/>
<feBlend mode="normal" in="SourceGraphic" in2="effect1_dropShadow_3_2" result="shape"/>
</filter>
</defs>
</svg>
